# Created By Carrara 1.0

# Number of vertices: 20
v -0.000001 10 0
v -2.357024 3.333333 4.082483
v -2.357024 3.333333 -4.082483
v 4.714044 3.333333 0
v -1.964186 4.444444 -2.041242
v -1.964186 4.444444 2.041242
v -0.785675 7.777778 0
v -0.785675 4.444444 2.721655
v 0.392836 7.777778 0.680414
v 2.749859 4.444444 0.680414
v 2.749859 4.444444 -0.680414
v 0.392836 7.777778 -0.680414
v -0.785675 4.444444 -2.721656
v 2.357022 3.333333 0
v -1.178512 3.333333 -2.041242
v -1.178512 3.333333 2.041242
v -0.000001 7.5 0
v -1.178512 4.166667 2.041242
v -1.178512 4.166667 -2.041242
v 2.357022 4.166667 0

# Number of normals: 20
vn 0 1 0
vn -0.476205 -0.304818 0.824812
vn -0.448556 -0.333219 -0.829314
vn 0.932237 -0.361848 0
vn -0.721733 0.471074 0.50714
vn -0.481544 0.655038 -0.582272
vn -0.938404 -0.333712 -0.089637
vn 0.86592 0.484079 0.125893
vn 0.391574 -0.333712 0.8575
vn -0.033708 0.597281 0.801323
vn -0.078329 0.471074 -0.878609
vn 0.54683 -0.333712 -0.767863
vn 0.745035 0.655038 -0.125894
vn -0.732793 -0.67235 0.10469
vn 0.391342 -0.773498 0.49855
vn 0.203555 -0.837481 -0.50714
vn 0 -1 0
vn 0.471404 0.333333 -0.816497
vn 0.471405 0.333333 0.816497
vn -0.942809 0.333333 0

# Number of texture vertices: 20
vt 0 0.891827
vt 0.136407 0.323981
vt 0.863593 0.323981
vt 0.5 0.259367
vt 0.908321 0.329623
vt 0.091679 0.329623
vt 0 0.663868
vt 0.150507 0.313845
vt 0.113593 0.760618
vt 0.434963 0.208978
vt 0.565037 0.208978
vt 0.886407 0.760618
vt 0.849493 0.313845
vt 0.5 0.108174
vt 0.886407 0.239382
vt 0.113593 0.239382
vt 0 0.695913
vt 0.113593 0.284877
vt 0.886407 0.284877
vt 0.5 0.140219

g Vertex_Object 
usemtl Default
# Number of Polygons: 24
f 3/3/3 15/15/15 16/16/16 2/2/2 
f 4/4/4 2/2/2 16/16/16 14/14/14 
f 4/4/4 14/14/14 15/15/15 3/3/3 
f 2/2/2 6/6/6 5/5/5 3/3/3 
f 5/5/5 7/7/7 1/1/1 3/3/3 
f 7/7/7 6/6/6 2/2/2 1/1/1 
f 2/2/2 8/8/8 9/9/9 1/1/1 
f 1/1/1 9/9/9 10/10/10 4/4/4 
f 10/10/10 8/8/8 2/2/2 4/4/4 
f 1/1/1 4/4/4 11/11/11 12/12/12 
f 3/3/3 13/13/13 11/11/11 4/4/4 
f 3/3/3 1/1/1 12/12/12 13/13/13 
f 13/13/13 19/19/19 20/20/20 11/11/11 
f 12/12/12 17/17/17 19/19/19 13/13/13 
f 11/11/11 20/20/20 17/17/17 12/12/12 
f 6/6/6 18/18/18 19/19/19 5/5/5 
f 7/7/7 17/17/17 18/18/18 6/6/6 
f 5/5/5 19/19/19 17/17/17 7/7/7 
f 8/8/8 18/18/18 17/17/17 9/9/9 
f 9/9/9 17/17/17 20/20/20 10/10/10 
f 10/10/10 20/20/20 18/18/18 8/8/8 
f 14/14/14 20/20/20 19/19/19 15/15/15 
f 15/15/15 19/19/19 18/18/18 16/16/16 
f 16/16/16 18/18/18 20/20/20 14/14/14 
# Number of vertices: 40
v 2.5 2.5 7.5
v -2.5 2.5 7.5
v -2.5 2.5 12.5
v 2.5 2.5 12.5
v 2.5 7.5 7.5
v -2.5 7.5 7.5
v -2.5 7.5 12.5
v 2.5 7.5 12.5
v -2.5 3.75 8.75
v -2.5 3.75 11.25
v -2.5 6.25 8.75
v -2.5 6.25 11.25
v -1.25 3.75 12.5
v 1.25 3.75 12.5
v -1.25 6.25 12.5
v 1.25 6.25 12.5
v 2.5 3.75 8.75
v 2.5 3.75 11.25
v 2.5 6.25 8.75
v 2.5 6.25 11.25
v 1.25 3.75 7.5
v -1.25 3.75 7.5
v 1.25 6.25 7.5
v -1.25 6.25 7.5
v 1.25 7.5 8.75
v -1.25 7.5 8.75
v -1.25 7.5 11.25
v 1.25 7.5 11.25
v 1.25 2.5 8.75
v -1.25 2.5 8.75
v -1.25 2.5 11.25
v 1.25 2.5 11.25
v 1.25 3.75 8.75
v -1.25 3.75 8.75
v -1.25 3.75 11.25
v 1.25 3.75 11.25
v 1.25 6.25 8.75
v -1.25 6.25 8.75
v -1.25 6.25 11.25
v 1.25 6.25 11.25

# Number of normals: 40
vn 0.57735 -0.57735 -0.57735
vn -0.57735 -0.57735 -0.57735
vn -0.57735 -0.57735 0.57735
vn 0.57735 -0.57735 0.57735
vn 0.57735 0.57735 -0.57735
vn -0.57735 0.57735 -0.57735
vn -0.57735 0.57735 0.57735
vn 0.57735 0.57735 0.57735
vn -0.753495 0.392904 0.527135
vn -0.753495 0.527135 -0.392904
vn -0.753495 -0.527135 0.392904
vn -0.753495 -0.392904 -0.527135
vn 0.527135 0.392904 0.753495
vn -0.392904 0.527135 0.753495
vn 0.392904 -0.527135 0.753495
vn -0.527135 -0.392904 0.753495
vn 0.753495 0.527135 0.392904
vn 0.753495 0.392904 -0.527135
vn 0.753495 -0.392904 0.527135
vn 0.753495 -0.527135 -0.392904
vn -0.527135 0.392904 -0.753495
vn 0.392904 0.527135 -0.753495
vn -0.392904 -0.527135 -0.753495
vn 0.527135 -0.392904 -0.753495
vn -0.527135 0.753495 0.392904
vn 0.392904 0.753495 0.527135
vn 0.527135 0.753495 -0.392904
vn -0.392904 0.753495 -0.527135
vn -0.392904 -0.753495 0.527135
vn 0.527135 -0.753495 0.392904
vn 0.392904 -0.753495 -0.527135
vn -0.527135 -0.753495 -0.392904
vn -0.57735 0.57735 0.57735
vn 0.57735 0.57735 0.57735
vn 0.57735 0.57735 -0.57735
vn -0.57735 0.57735 -0.57735
vn -0.57735 -0.57735 0.57735
vn 0.57735 -0.57735 0.57735
vn 0.57735 -0.57735 -0.57735
vn -0.57735 -0.57735 -0.57735

# Number of texture vertices: 40
vt 0.625 0.304087
vt 0.875 0.304087
vt 0.125 0.304087
vt 0.375 0.304087
vt 0.625 0.695913
vt 0.875 0.695913
vt 0.125 0.695913
vt 0.375 0.695913
vt 0.926208 0.36614
vt 0.073792 0.36614
vt 0.926208 0.63386
vt 0.073792 0.63386
vt 0.176208 0.36614
vt 0.323792 0.36614
vt 0.176208 0.63386
vt 0.323792 0.63386
vt 0.573792 0.36614
vt 0.426208 0.36614
vt 0.573792 0.63386
vt 0.426208 0.63386
vt 0.676208 0.36614
vt 0.823792 0.36614
vt 0.676208 0.63386
vt 0.823792 0.63386
vt 0.625 0.804087
vt 0.875 0.804087
vt 0.125 0.804087
vt 0.375 0.804087
vt 0.625 0.195913
vt 0.875 0.195913
vt 0.125 0.195913
vt 0.375 0.195913
vt 0.625 0.304087
vt 0.875 0.304087
vt 0.125 0.304087
vt 0.375 0.304087
vt 0.625 0.695913
vt 0.875 0.695913
vt 0.125 0.695913
vt 0.375 0.695913

g Vertex_Object_1 
usemtl Default
# Number of Polygons: 48
f 22/22/22 29/29/29 31/31/31 26/26/26 
f 26/26/26 31/31/31 32/32/32 27/27/27 
f 27/27/27 32/32/32 30/30/30 23/23/23 
f 23/23/23 30/30/30 29/29/29 22/22/22 
f 23/23/23 33/33/33 35/35/35 27/27/27 
f 27/27/27 35/35/35 36/36/36 28/28/28 
f 28/28/28 36/36/36 34/34/34 24/24/24 
f 24/24/24 34/34/34 33/33/33 23/23/23 
f 25/25/25 39/39/39 37/37/37 21/21/21 
f 21/21/21 37/37/37 38/38/38 24/24/24 
f 24/24/24 38/38/38 40/40/40 28/28/28 
f 28/28/28 40/40/40 39/39/39 25/25/25 
f 22/22/22 42/42/42 41/41/41 21/21/21 
f 26/26/26 44/44/44 42/42/42 22/22/22 
f 25/25/25 43/43/43 44/44/44 26/26/26 
f 21/21/21 41/41/41 43/43/43 25/25/25 
f 26/26/26 46/46/46 45/45/45 25/25/25 
f 25/25/25 45/45/45 48/48/48 28/28/28 
f 28/28/28 48/48/48 47/47/47 27/27/27 
f 27/27/27 47/47/47 46/46/46 26/26/26 
f 21/21/21 49/49/49 50/50/50 22/22/22 
f 22/22/22 50/50/50 51/51/51 23/23/23 
f 23/23/23 51/51/51 52/52/52 24/24/24 
f 24/24/24 52/52/52 49/49/49 21/21/21 
f 42/42/42 54/54/54 53/53/53 41/41/41 
f 44/44/44 58/58/58 54/54/54 42/42/42 
f 43/43/43 57/57/57 58/58/58 44/44/44 
f 41/41/41 53/53/53 57/57/57 43/43/43 
f 49/49/49 53/53/53 54/54/54 50/50/50 
f 50/50/50 54/54/54 55/55/55 51/51/51 
f 51/51/51 55/55/55 56/56/56 52/52/52 
f 52/52/52 56/56/56 53/53/53 49/49/49 
f 39/39/39 57/57/57 53/53/53 37/37/37 
f 37/37/37 53/53/53 56/56/56 38/38/38 
f 38/38/38 56/56/56 60/60/60 40/40/40 
f 40/40/40 60/60/60 57/57/57 39/39/39 
f 29/29/29 54/54/54 58/58/58 31/31/31 
f 31/31/31 58/58/58 59/59/59 32/32/32 
f 32/32/32 59/59/59 55/55/55 30/30/30 
f 30/30/30 55/55/55 54/54/54 29/29/29 
f 33/33/33 55/55/55 59/59/59 35/35/35 
f 35/35/35 59/59/59 60/60/60 36/36/36 
f 36/36/36 60/60/60 56/56/56 34/34/34 
f 34/34/34 56/56/56 55/55/55 33/33/33 
f 46/46/46 58/58/58 57/57/57 45/45/45 
f 45/45/45 57/57/57 60/60/60 48/48/48 
f 48/48/48 60/60/60 59/59/59 47/47/47 
f 47/47/47 59/59/59 58/58/58 46/46/46 
# Number of vertices: 100
v -3.03531 8.973272 20
v -0.937962 8.973272 22.886751
v 2.455617 8.973272 21.784109
v 2.455617 8.973272 18.215889
v -0.937963 8.973272 17.113249
v -4.911235 5.937962 20
v -1.517655 5.937962 24.670862
v 3.973272 5.937962 22.886751
v 3.973272 5.937962 17.113249
v -1.517656 5.937962 15.329138
v -3.973272 4.062038 22.886751
v 1.517655 4.062038 24.670862
v 4.911235 4.062038 20
v 1.517656 4.062038 15.329138
v -3.973272 4.062038 17.113249
v -2.455617 1.026728 21.784109
v 0.937963 1.026728 22.886751
v 3.03531 1.026728 20
v 0.937963 1.026728 17.113249
v -2.455617 1.026728 18.215889
v -2.955198 7.875087 21.044436
v -1.906525 7.875087 22.487812
v -3.893161 6.357432 21.044436
v -2.196371 6.357432 23.379868
v -3.42418 5.41947 22.487812
v 0.080112 7.875087 23.133308
v 1.776901 7.875087 22.581989
v -0.209735 6.357432 24.025364
v 2.535729 6.357432 23.133308
v 1.30792 5.41947 24.025364
v -1.517655 8.973272 20
v -0.468981 8.973272 21.443375
v 1.227809 8.973272 20.892056
v 1.227808 8.973272 19.107944
v -0.468981 8.973272 18.556623
v 3.00471 7.875087 20.892056
v 3.00471 7.875087 19.107944
v 3.763537 6.357432 21.443375
v 3.763537 6.357432 18.556623
v 4.232519 5.41947 20
v 3.42418 4.58053 17.512188
v 3.893161 3.642568 18.955563
v 2.196371 3.642568 16.620132
v 2.955198 2.124913 18.955563
v 1.906525 2.124913 17.512188
v 3.42418 4.58053 22.487812
v 2.196371 3.642568 23.379868
v 3.893161 3.642568 21.044436
v 1.906525 2.124913 22.487812
v 2.955198 2.124913 21.044436
v 1.776901 7.875087 17.418011
v 0.080111 7.875087 16.866692
v 2.535728 6.357432 16.86669
v -0.209735 6.357432 15.974635
v 1.30792 5.41947 15.974635
v -2.955198 7.875087 18.955564
v -1.906525 7.875087 17.512188
v -3.893161 6.357432 18.955564
v -2.196371 6.357432 16.620132
v -3.42418 5.41947 17.512188
v -1.30792 4.58053 15.974635
v 0.209735 3.642568 15.974635
v -2.535729 3.642568 16.86669
v -0.080111 2.124913 16.866692
v -1.776901 2.124913 17.418011
v -4.232519 4.58053 20
v -3.763538 3.642568 21.443375
v -3.763537 3.642568 18.556623
v -3.00471 2.124913 20.892056
v -3.00471 2.124913 19.107944
v -1.30792 4.58053 24.025364
v -2.535729 3.642568 23.133308
v 0.209735 3.642568 24.025364
v -1.776901 2.124913 22.581989
v -0.080111 2.124913 23.133308
v -1.227809 1.026728 20.892056
v 0.468981 1.026728 21.443375
v 1.517655 1.026728 20
v 0.468981 1.026728 18.556623
v -1.227809 1.026728 19.107944
v -1.517655 6.986636 20
v -0.468981 6.986636 21.443377
v 1.227809 6.986636 20.892056
v 1.227808 6.986636 19.107944
v -0.468981 6.986636 18.556625
v -2.455617 5.468981 20
v -0.758827 5.468981 22.33543
v 1.986636 5.468981 21.443377
v 1.986636 5.468981 18.556623
v -0.758828 5.468981 17.66457
v -1.986636 4.531019 21.443377
v 0.758828 4.531019 22.33543
v 2.455617 4.531019 20
v 0.758828 4.531019 17.66457
v -1.986636 4.531019 18.556623
v -1.227809 3.013364 20.892056
v 0.468981 3.013364 21.443377
v 1.517655 3.013364 20
v 0.468981 3.013364 18.556623
v -1.227809 3.013364 19.107944

# Number of normals: 100
vn -0.607062 0.794654 0
vn -0.187592 0.794655 0.57735
vn 0.491123 0.794655 0.356822
vn 0.491123 0.794654 -0.356822
vn -0.187593 0.794655 -0.57735
vn -0.982247 0.187593 0
vn -0.303531 0.187592 0.934172
vn 0.794654 0.187593 0.57735
vn 0.794654 0.187593 -0.57735
vn -0.303531 0.187592 -0.934172
vn -0.794654 -0.187593 0.57735
vn 0.303531 -0.187592 0.934172
vn 0.982247 -0.187592 0
vn 0.303531 -0.187592 -0.934172
vn -0.794654 -0.187593 -0.57735
vn -0.491123 -0.794655 0.356822
vn 0.187593 -0.794654 0.57735
vn 0.607062 -0.794654 0
vn 0.187593 -0.794655 -0.57735
vn -0.491123 -0.794654 -0.356822
vn -0.561757 -0.187013 0.805887
vn -0.983132 -0.100823 0.152598
vn -0.11059 0.446628 0.887859
vn -0.792388 0.586086 -0.169186
vn -0.253128 0.92443 0.28523
vn 0.592852 -0.187013 0.783296
vn -0.158675 -0.100823 0.982169
vn 0.81023 0.446628 0.379541
vn -0.405767 0.586086 0.701325
vn 0.193049 0.92443 0.328879
vn 0.660275 0.746537 0.081971
vn 0.281996 0.746537 -0.602629
vn -0.485993 0.746537 -0.454416
vn -0.582356 0.746537 0.321784
vn 0.126077 0.746537 0.65329
vn 0.92816 -0.187013 -0.321784
vn 0.885065 -0.100823 0.454416
vn 0.611339 0.446628 -0.65329
vn 0.54161 0.586086 0.602629
vn 0.372439 0.92443 -0.081971
vn 0.349491 -0.92443 -0.152598
vn 0.083956 -0.586086 -0.805887
vn 0.878578 -0.446628 0.169186
vn 0.448934 0.100823 -0.887859
vn 0.940037 0.187013 -0.28523
vn 0.253128 -0.92443 0.28523
vn 0.792388 -0.586086 -0.169186
vn 0.11059 -0.446628 0.887859
vn 0.983132 0.100824 0.152598
vn 0.561757 0.187013 0.805887
vn -0.019218 -0.187013 -0.982169
vn 0.705676 -0.100823 -0.701325
vn -0.432401 0.446628 -0.783296
vn 0.740501 0.586086 -0.32888
vn 0.03713 0.92443 -0.379541
vn -0.448934 -0.100823 -0.887859
vn -0.940037 -0.187013 -0.28523
vn -0.083956 0.586086 -0.805887
vn -0.878578 0.446628 0.169186
vn -0.349491 0.92443 -0.152598
vn -0.03713 -0.92443 -0.379541
vn -0.740501 -0.586086 -0.32888
vn 0.432401 -0.446628 -0.783296
vn -0.705676 0.100823 -0.701325
vn 0.019218 0.187013 -0.982169
vn -0.372439 -0.92443 -0.081971
vn -0.61134 -0.446628 -0.65329
vn -0.54161 -0.586086 0.602628
vn -0.92816 0.187013 -0.321784
vn -0.885065 0.100823 0.454416
vn -0.193049 -0.92443 0.32888
vn 0.405767 -0.586086 0.701325
vn -0.81023 -0.446628 0.379541
vn 0.158675 0.100823 0.982169
vn -0.592852 0.187013 0.783296
vn 0.485993 -0.746537 -0.454416
vn -0.281996 -0.746537 -0.602629
vn -0.660275 -0.746537 0.081971
vn -0.126077 -0.746537 0.65329
vn 0.582356 -0.746537 0.321784
vn 0.607062 -0.794655 0
vn 0.187593 -0.794655 -0.57735
vn -0.491124 -0.794654 -0.356822
vn -0.491123 -0.794654 0.356822
vn 0.187593 -0.794654 0.57735
vn 0.982247 -0.187592 0
vn 0.303531 -0.187592 -0.934172
vn -0.794654 -0.187593 -0.57735
vn -0.794654 -0.187593 0.57735
vn 0.303531 -0.187592 0.934172
vn 0.794654 0.187593 -0.57735
vn -0.303531 0.187592 -0.934172
vn -0.982247 0.187592 0
vn -0.303531 0.187592 0.934172
vn 0.794655 0.187593 0.57735
vn 0.491124 0.794654 -0.356822
vn -0.187593 0.794654 -0.57735
vn -0.607062 0.794654 0
vn -0.187592 0.794655 0.57735
vn 0.491123 0.794654 0.356822

# Number of texture vertices: 100
vt 0 0.792348
vt 0.2 0.792348
vt 0.4 0.792348
vt 0.6 0.792348
vt 0.8 0.792348
vt 0 0.560068
vt 0.2 0.560068
vt 0.4 0.560068
vt 0.6 0.560068
vt 0.8 0.560068
vt 0.1 0.439932
vt 0.3 0.439932
vt 0.5 0.439932
vt 0.7 0.439932
vt 0.9 0.439932
vt 0.1 0.207652
vt 0.3 0.207652
vt 0.5 0.207652
vt 0.7 0.207652
vt 0.9 0.207652
vt 0.054068 0.736277
vt 0.145932 0.736277
vt 0.041715 0.603398
vt 0.158285 0.603398
vt 0.1 0.531444
vt 0.254068 0.736277
vt 0.345932 0.736277
vt 0.241715 0.603398
vt 0.358285 0.603398
vt 0.3 0.531444
vt 0 0.88386
vt 0.2 0.88386
vt 0.4 0.88386
vt 0.6 0.88386
vt 0.8 0.88386
vt 0.454068 0.736277
vt 0.545932 0.736277
vt 0.441715 0.603398
vt 0.558285 0.603398
vt 0.5 0.531444
vt 0.6 0.468556
vt 0.541715 0.396602
vt 0.658285 0.396602
vt 0.554068 0.263723
vt 0.645932 0.263723
vt 0.4 0.468556
vt 0.341715 0.396602
vt 0.458285 0.396602
vt 0.354068 0.263723
vt 0.445932 0.263723
vt 0.654068 0.736277
vt 0.745932 0.736277
vt 0.641715 0.603398
vt 0.758285 0.603398
vt 0.7 0.531444
vt 0.945932 0.736277
vt 0.854068 0.736277
vt 0.958285 0.603398
vt 0.841715 0.603398
vt 0.9 0.531444
vt 0.8 0.468556
vt 0.741715 0.396602
vt 0.858285 0.396602
vt 0.754068 0.263723
vt 0.845932 0.263723
vt 0 0.468556
vt 0.058285 0.396602
vt 0.941715 0.396602
vt 0.045932 0.263723
vt 0.954068 0.263723
vt 0.2 0.468556
vt 0.141715 0.396602
vt 0.258285 0.396602
vt 0.154068 0.263723
vt 0.245932 0.263723
vt 0.1 0.11614
vt 0.3 0.11614
vt 0.5 0.11614
vt 0.7 0.11614
vt 0.9 0.11614
vt 0 0.792348
vt 0.2 0.792348
vt 0.4 0.792348
vt 0.6 0.792348
vt 0.8 0.792348
vt 0 0.560068
vt 0.2 0.560068
vt 0.4 0.560068
vt 0.6 0.560068
vt 0.8 0.560068
vt 0.1 0.439932
vt 0.3 0.439932
vt 0.5 0.439932
vt 0.7 0.439932
vt 0.9 0.439932
vt 0.1 0.207652
vt 0.3 0.207652
vt 0.5 0.207652
vt 0.7 0.207652
vt 0.9 0.207652

g Vertex_Object_2 
usemtl Default
# Number of Polygons: 120
f 61/61/61 81/81/81 82/82/82 62/62/62 
f 62/62/62 82/82/82 84/84/84 67/67/67 
f 67/67/67 84/84/84 85/85/85 71/71/71 
f 71/71/71 85/85/85 83/83/83 66/66/66 
f 66/66/66 83/83/83 81/81/81 61/61/61 
f 62/62/62 86/86/86 87/87/87 63/63/63 
f 63/63/63 87/87/87 89/89/89 68/68/68 
f 68/68/68 89/89/89 90/90/90 72/72/72 
f 72/72/72 90/90/90 88/88/88 67/67/67 
f 67/67/67 88/88/88 86/86/86 62/62/62 
f 62/62/62 92/92/92 91/91/91 61/61/61 
f 63/63/63 93/93/93 92/92/92 62/62/62 
f 64/64/64 94/94/94 93/93/93 63/63/63 
f 65/65/65 95/95/95 94/94/94 64/64/64 
f 61/61/61 91/91/91 95/95/95 65/65/65 
f 63/63/63 96/96/96 97/97/97 64/64/64 
f 64/64/64 97/97/97 99/99/99 69/69/69 
f 69/69/69 99/99/99 100/100/100 73/73/73 
f 73/73/73 100/100/100 98/98/98 68/68/68 
f 68/68/68 98/98/98 96/96/96 63/63/63 
f 73/73/73 102/102/102 101/101/101 69/69/69 
f 78/78/78 104/104/104 102/102/102 73/73/73 
f 79/79/79 105/105/105 104/104/104 78/78/78 
f 74/74/74 103/103/103 105/105/105 79/79/79 
f 69/69/69 101/101/101 103/103/103 74/74/74 
f 72/72/72 107/107/107 106/106/106 68/68/68 
f 77/77/77 109/109/109 107/107/107 72/72/72 
f 78/78/78 110/110/110 109/109/109 77/77/77 
f 73/73/73 108/108/108 110/110/110 78/78/78 
f 68/68/68 106/106/106 108/108/108 73/73/73 
f 64/64/64 111/111/111 112/112/112 65/65/65 
f 65/65/65 112/112/112 114/114/114 70/70/70 
f 70/70/70 114/114/114 115/115/115 74/74/74 
f 74/74/74 115/115/115 113/113/113 69/69/69 
f 69/69/69 113/113/113 111/111/111 64/64/64 
f 65/65/65 117/117/117 116/116/116 61/61/61 
f 61/61/61 116/116/116 118/118/118 66/66/66 
f 66/66/66 118/118/118 120/120/120 75/75/75 
f 75/75/75 120/120/120 119/119/119 70/70/70 
f 70/70/70 119/119/119 117/117/117 65/65/65 
f 75/75/75 123/123/123 125/125/125 80/80/80 
f 70/70/70 121/121/121 123/123/123 75/75/75 
f 74/74/74 122/122/122 121/121/121 70/70/70 
f 79/79/79 124/124/124 122/122/122 74/74/74 
f 80/80/80 125/125/125 124/124/124 79/79/79 
f 66/66/66 126/126/126 127/127/127 71/71/71 
f 75/75/75 128/128/128 126/126/126 66/66/66 
f 80/80/80 130/130/130 128/128/128 75/75/75 
f 76/76/76 129/129/129 130/130/130 80/80/80 
f 71/71/71 127/127/127 129/129/129 76/76/76 
f 71/71/71 132/132/132 131/131/131 67/67/67 
f 76/76/76 134/134/134 132/132/132 71/71/71 
f 77/77/77 135/135/135 134/134/134 76/76/76 
f 72/72/72 133/133/133 135/135/135 77/77/77 
f 67/67/67 131/131/131 133/133/133 72/72/72 
f 80/80/80 140/140/140 136/136/136 76/76/76 
f 79/79/79 139/139/139 140/140/140 80/80/80 
f 78/78/78 138/138/138 139/139/139 79/79/79 
f 77/77/77 137/137/137 138/138/138 78/78/78 
f 76/76/76 136/136/136 137/137/137 77/77/77 
f 81/81/81 141/141/141 142/142/142 82/82/82 
f 82/82/82 142/142/142 147/147/147 84/84/84 
f 84/84/84 147/147/147 151/151/151 85/85/85 
f 85/85/85 151/151/151 146/146/146 83/83/83 
f 83/83/83 146/146/146 141/141/141 81/81/81 
f 86/86/86 142/142/142 143/143/143 87/87/87 
f 87/87/87 143/143/143 148/148/148 89/89/89 
f 89/89/89 148/148/148 152/152/152 90/90/90 
f 90/90/90 152/152/152 147/147/147 88/88/88 
f 88/88/88 147/147/147 142/142/142 86/86/86 
f 96/96/96 143/143/143 144/144/144 97/97/97 
f 97/97/97 144/144/144 149/149/149 99/99/99 
f 99/99/99 149/149/149 153/153/153 100/100/100 
f 100/100/100 153/153/153 148/148/148 98/98/98 
f 98/98/98 148/148/148 143/143/143 96/96/96 
f 92/92/92 142/142/142 141/141/141 91/91/91 
f 93/93/93 143/143/143 142/142/142 92/92/92 
f 94/94/94 144/144/144 143/143/143 93/93/93 
f 95/95/95 145/145/145 144/144/144 94/94/94 
f 91/91/91 141/141/141 145/145/145 95/95/95 
f 111/111/111 144/144/144 145/145/145 112/112/112 
f 112/112/112 145/145/145 150/150/150 114/114/114 
f 114/114/114 150/150/150 154/154/154 115/115/115 
f 115/115/115 154/154/154 149/149/149 113/113/113 
f 113/113/113 149/149/149 144/144/144 111/111/111 
f 117/117/117 145/145/145 141/141/141 116/116/116 
f 116/116/116 141/141/141 146/146/146 118/118/118 
f 118/118/118 146/146/146 155/155/155 120/120/120 
f 120/120/120 155/155/155 150/150/150 119/119/119 
f 119/119/119 150/150/150 145/145/145 117/117/117 
f 140/140/140 160/160/160 156/156/156 136/136/136 
f 139/139/139 159/159/159 160/160/160 140/140/140 
f 138/138/138 158/158/158 159/159/159 139/139/139 
f 137/137/137 157/157/157 158/158/158 138/138/138 
f 136/136/136 156/156/156 157/157/157 137/137/137 
f 123/123/123 155/155/155 160/160/160 125/125/125 
f 121/121/121 150/150/150 155/155/155 123/123/123 
f 122/122/122 154/154/154 150/150/150 121/121/121 
f 124/124/124 159/159/159 154/154/154 122/122/122 
f 125/125/125 160/160/160 159/159/159 124/124/124 
f 102/102/102 153/153/153 149/149/149 101/101/101 
f 104/104/104 158/158/158 153/153/153 102/102/102 
f 105/105/105 159/159/159 158/158/158 104/104/104 
f 103/103/103 154/154/154 159/159/159 105/105/105 
f 101/101/101 149/149/149 154/154/154 103/103/103 
f 132/132/132 151/151/151 147/147/147 131/131/131 
f 134/134/134 156/156/156 151/151/151 132/132/132 
f 135/135/135 157/157/157 156/156/156 134/134/134 
f 133/133/133 152/152/152 157/157/157 135/135/135 
f 131/131/131 147/147/147 152/152/152 133/133/133 
f 126/126/126 146/146/146 151/151/151 127/127/127 
f 128/128/128 155/155/155 146/146/146 126/126/126 
f 130/130/130 160/160/160 155/155/155 128/128/128 
f 129/129/129 156/156/156 160/160/160 130/130/130 
f 127/127/127 151/151/151 156/156/156 129/129/129 
f 107/107/107 152/152/152 148/148/148 106/106/106 
f 109/109/109 157/157/157 152/152/152 107/107/107 
f 110/110/110 158/158/158 157/157/157 109/109/109 
f 108/108/108 153/153/153 158/158/158 110/110/110 
f 106/106/106 148/148/148 153/153/153 108/108/108 
